<svg xmlns="http://www.w3.org/2000/svg" viewBox="0 0 260 72" width="520" height="144">
  <rect x="0" y="0" width="260" height="72" rx="8" fill="#080f20" stroke="#1a3060" stroke-width="1.5"/>
  <rect x="3" y="3" width="254" height="66" rx="6" fill="#0a1428" stroke="#0f2040" stroke-width="1"/>
  <rect x="10" y="4" width="240" height="2" rx="1" fill="#2a5cc0" opacity="0.4"/>
  <rect x="3" y="10" width="3" height="46" rx="1" fill="#4a90e2" opacity="0.9"/>
  <circle cx="14" cy="14" r="3" fill="#0d1e3a" stroke="#1a3a6a" stroke-width="1"/>
  <circle cx="14" cy="14" r="1.2" fill="#2a5cc0"/>
  <circle cx="246" cy="14" r="3" fill="#0d1e3a" stroke="#1a3a6a" stroke-width="1"/>
  <circle cx="246" cy="14" r="1.2" fill="#2a5cc0"/>
  <circle cx="14" cy="58" r="3" fill="#0d1e3a" stroke="#1a3a6a" stroke-width="1"/>
  <circle cx="14" cy="58" r="1.2" fill="#2a5cc0"/>
  <circle cx="246" cy="58" r="3" fill="#0d1e3a" stroke="#1a3a6a" stroke-width="1"/>
  <circle cx="246" cy="58" r="1.2" fill="#2a5cc0"/>
  <text x="22" y="28"
    font-family="'Arial Black', Impact, sans-serif"
    font-size="11px" font-weight="900"
    fill="#4a90e2" letter-spacing="3" opacity="0.8">SCORE</text>
  <text x="22" y="54"
    font-family="'Arial Black', Impact, sans-serif"
    font-size="26px" font-weight="900"
    fill="#e8f4ff" letter-spacing="2">000000</text>
  <line x1="250" y1="12" x2="250" y2="60" stroke="#1a3060" stroke-width="1"/>
  <line x1="244" y1="12" x2="250" y2="12" stroke="#1a3060" stroke-width="1"/>
  <line x1="244" y1="60" x2="250" y2="60" stroke="#1a3060" stroke-width="1"/>
</svg>
