<svg xmlns="http://www.w3.org/2000/svg" viewBox="0 0 560 380" width="1120" height="760">
  <rect x="0" y="0" width="560" height="380" rx="14" fill="#07080f" stroke="#1a1a3a" stroke-width="2"/>
  <rect x="3" y="3" width="554" height="374" rx="12" fill="#090a14" stroke="#12122a" stroke-width="1"/>
  <!-- inner subtle grid lines for depth -->
  <line x1="0" y1="120" x2="560" y2="120" stroke="#12122a" stroke-width="1" opacity="0.5"/>
  <line x1="0" y1="260" x2="560" y2="260" stroke="#12122a" stroke-width="1" opacity="0.5"/>
  <!-- top-left corner accent -->
  <line x1="16" y1="3" x2="48" y2="3" stroke="#e74c3c" stroke-width="2" opacity="0.7"/>
  <line x1="3" y1="3" x2="3" y2="36" stroke="#e74c3c" stroke-width="2" opacity="0.7"/>
  <!-- top-right corner accent -->
  <line x1="512" y1="3" x2="544" y2="3" stroke="#e74c3c" stroke-width="2" opacity="0.7"/>
  <line x1="557" y1="3" x2="557" y2="36" stroke="#e74c3c" stroke-width="2" opacity="0.7"/>
  <!-- bottom-left corner accent -->
  <line x1="16" y1="377" x2="48" y2="377" stroke="#e74c3c" stroke-width="2" opacity="0.7"/>
  <line x1="3" y1="344" x2="3" y2="377" stroke="#e74c3c" stroke-width="2" opacity="0.7"/>
  <!-- bottom-right corner accent -->
  <line x1="512" y1="377" x2="544" y2="377" stroke="#e74c3c" stroke-width="2" opacity="0.7"/>
  <line x1="557" y1="344" x2="557" y2="377" stroke="#e74c3c" stroke-width="2" opacity="0.7"/>
  <!-- corner bolts -->
  <circle cx="20" cy="20" r="5" fill="#0f0f1f" stroke="#2a1a2a" stroke-width="1.2"/>
  <circle cx="20" cy="20" r="2" fill="#e74c3c" opacity="0.6"/>
  <circle cx="540" cy="20" r="5" fill="#0f0f1f" stroke="#2a1a2a" stroke-width="1.2"/>
  <circle cx="540" cy="20" r="2" fill="#e74c3c" opacity="0.6"/>
  <circle cx="20" cy="360" r="5" fill="#0f0f1f" stroke="#2a1a2a" stroke-width="1.2"/>
  <circle cx="20" cy="360" r="2" fill="#e74c3c" opacity="0.6"/>
  <circle cx="540" cy="360" r="5" fill="#0f0f1f" stroke="#2a1a2a" stroke-width="1.2"/>
  <circle cx="540" cy="360" r="2" fill="#e74c3c" opacity="0.6"/>
</svg>
