<svg xmlns="http://www.w3.org/2000/svg" viewBox="-100 -100 200 200" width="512" height="512">

  <polygon points="0,-88 32,-78 62,-55 80,-20 75,25 55,60 18,82 -22,85 -58,65 -78,28 -80,-18 -62,-55 -28,-80"
    fill="#5a4a3a" stroke="#3a2e22" stroke-width="2"/>

  <polygon points="0,-88 32,-78 18,-40 -12,-38" fill="#6b5a47"/>
  <polygon points="32,-78 62,-55 50,-22 18,-40" fill="#4e3d2e"/>
  <polygon points="62,-55 80,-20 58,5 50,-22" fill="#6b5a47"/>
  <polygon points="80,-20 75,25 45,28 58,5" fill="#7a6652"/>
  <polygon points="75,25 55,60 30,42 45,28" fill="#4e3d2e"/>
  <polygon points="55,60 18,82 10,52 30,42" fill="#6b5a47"/>
  <polygon points="18,82 -22,85 -15,50 10,52" fill="#5a4a3a"/>
  <polygon points="-22,85 -58,65 -40,38 -15,50" fill="#4e3d2e"/>
  <polygon points="-58,65 -78,28 -52,10 -40,38" fill="#6b5a47"/>
  <polygon points="-78,28 -80,-18 -48,-12 -52,10" fill="#5a4a3a"/>
  <polygon points="-80,-18 -62,-55 -42,-30 -48,-12" fill="#7a6652"/>
  <polygon points="-62,-55 -28,-80 -15,-48 -42,-30" fill="#4e3d2e"/>
  <polygon points="-28,-80 0,-88 -12,-38 -15,-48" fill="#6b5a47"/>
  <polygon points="-12,-38 18,-40 50,-22 58,5 45,28 30,42 10,52 -15,50 -40,38 -52,10 -48,-12 -42,-30 -15,-48" fill="#3d2f22"/>

  <ellipse cx="-18" cy="-10" rx="13" ry="11" fill="#2e2218" stroke="#3a2a18" stroke-width="1"/>
  <ellipse cx="-18" cy="-10" rx="8" ry="7" fill="#241a12"/>
  <ellipse cx="30" cy="15" rx="9" ry="8" fill="#2e2218" stroke="#3a2a18" stroke-width="1"/>
  <ellipse cx="30" cy="15" rx="5" ry="4" fill="#241a12"/>
  <ellipse cx="-5" cy="45" rx="7" ry="6" fill="#2e2218" stroke="#3a2a18" stroke-width="0.8"/>
  <ellipse cx="-5" cy="45" rx="4" ry="3" fill="#241a12"/>
  <ellipse cx="15" cy="-52" rx="6" ry="5" fill="#2e2218" stroke="#3a2a18" stroke-width="0.8"/>
  <ellipse cx="15" cy="-52" rx="3" ry="2.5" fill="#241a12"/>

  <polygon points="0,-88 32,-78 62,-55" fill="none" stroke="#8a7260" stroke-width="2"
    stroke-linecap="round" stroke-linejoin="round" opacity="0.7"/>

</svg>
